<svg xmlns="http://www.w3.org/2000/svg" viewBox="0 0 884 482"><defs><style>.cls-1{fill:#fbf4ff;}.cls-2{fill:#9794ff;}</style></defs><title>blobs</title><g id="Layer_2" data-name="Layer 2"><g id="Layer_1-2" data-name="Layer 1"><path class="cls-1" d="M0,0H884C799,21,747.56,57.11,716,87c-41.37,39.18-42,61.33-83,87-47,29.39-94.8,30.76-171,32-125.64,2.05-124-22.57-169-8-72.36,23.45-76.6,87.25-179,190A760.47,760.47,0,0,1,0,482Z"/><path class="cls-2" d="M0,0H577.72C589,75.46,562.34,101.66,555,108c-29.36,25.36-78.47,16.74-141.32,5.71C338.77,100.57,304.81,79.07,283,98c-19.84,17.22-6.17,47.55-28,62-22.18,14.68-43.19-12.08-73-4-47.77,12.94-39.39,94-98,136-28.28,20.28-61,23.44-84,23Z"/></g></g></svg>